<?xml version="1.0" encoding="UTF-8"?><svg width="225" height="60" xmlns="http://www.w3.org/2000/svg"><!--Generator: Sketch 52.6 (67491) - http://www.bohemiancoding.com/sketch--><g fill="none" fill-rule="evenodd"><rect stroke="#191919" stroke-width="3" x="1.5" y="1.5" width="222" height="57" rx="5"/><g fill="#191919"><path d="M48.091 18.262c4.539 0 7.441 4.316 7.441 4.316s-4.427 2.36-4.427 7.489c0 6.086 5.562 7.856 5.562 7.856s-4.39 10.236-9.32 10.236c-2.771 0-2.957-1.567-6.64-1.567-3.199 0-4.278 1.567-6.715 1.567-4.65 0-10.659-9.978-10.659-18.092 0-8.43 6.083-11.805 9.896-11.805 3.349 0 4.744 1.937 7.44 1.937 2.27 0 4.056-1.937 7.422-1.937zm-.78-8.595c.669 4.131-3.144 9.24-7.701 9.075-.67-5.257 4.241-8.798 7.701-9.075z" fill-rule="nonzero"/><path d="M80.406 32.28l-1.588-4.929c-.17-.504-.49-1.689-.957-3.552h-.053c-.19.802-.482 1.984-.896 3.552l-1.57 4.928h5.064zm5.518 7.86h-3.22l-1.76-5.537h-6.13l-1.683 5.537h-3.13l6.07-18.86h3.751l6.102 18.86zM97.674 33.281c0-1.322-.295-2.416-.893-3.27-.658-.892-1.531-1.347-2.634-1.347-.744 0-1.418.246-2.026.738-.607.502-1.004 1.15-1.191 1.953-.092.375-.138.68-.138.924v2.264c0 .992.3 1.828.909 2.51.605.673 1.393 1.015 2.362 1.015 1.137 0 2.029-.435 2.66-1.314.635-.877.95-2.034.95-3.473m3.08-.107c0 2.32-.626 4.138-1.888 5.486-1.121 1.191-2.521 1.787-4.19 1.787-1.804 0-3.1-.64-3.883-1.934v7.141h-3.016V31.008a91.2 91.2 0 0 0-.118-4.469h2.659l.166 2.152h.053c1.01-1.615 2.538-2.426 4.593-2.426 1.606 0 2.94.63 4.018 1.901 1.07 1.267 1.607 2.94 1.607 5.008M112.621 33.281c0-1.322-.297-2.416-.895-3.27-.654-.892-1.533-1.347-2.634-1.347-.746 0-1.418.246-2.028.738a3.497 3.497 0 0 0-1.19 1.953c-.092.375-.139.68-.139.924v2.264c0 .992.3 1.828.91 2.51.603.673 1.394 1.015 2.361 1.015 1.142 0 2.03-.435 2.664-1.314.637-.877.951-2.034.951-3.473m3.076-.107c0 2.32-.627 4.138-1.887 5.486-1.127 1.191-2.52 1.787-4.193 1.787-1.8 0-3.094-.64-3.882-1.934v7.141h-3.022V31.008c0-1.454-.037-2.942-.112-4.469h2.653l.175 2.152h.05c1.015-1.615 2.54-2.426 4.593-2.426 1.606 0 2.942.63 4.016 1.901 1.074 1.267 1.61 2.94 1.61 5.008M132.77 34.85c0 1.605-.562 2.916-1.673 3.918-1.234 1.102-2.946 1.65-5.139 1.65-2.033 0-3.66-.394-4.887-1.175l.7-2.518a8.452 8.452 0 0 0 4.361 1.174c1.143 0 2.028-.258 2.66-.766.633-.512.95-1.197.95-2.066 0-.754-.261-1.4-.781-1.922-.525-.524-1.388-1.006-2.603-1.455-3.297-1.23-4.951-3.03-4.951-5.4 0-1.55.58-2.82 1.748-3.805 1.166-.99 2.71-1.485 4.63-1.485 1.719 0 3.143.3 4.286.895l-.764 2.463c-1.063-.578-2.27-.87-3.617-.87-1.068 0-1.904.27-2.504.782-.505.47-.755 1.043-.755 1.713 0 .74.288 1.357.866 1.847.506.448 1.418.932 2.74 1.452 1.629.648 2.818 1.418 3.587 2.298.763.877 1.146 1.967 1.146 3.27M141.752 28.803h-3.336v6.61c0 1.679.592 2.513 1.77 2.513.539 0 .984-.041 1.34-.133l.085 2.289c-.597.227-1.38.336-2.35.336-1.19 0-2.128-.357-2.796-1.09-.676-.726-1.012-1.95-1.012-3.664v-6.861h-1.984v-2.264h1.984v-2.49l2.963-.894v3.384h3.336v2.264zM152.807 33.299c0-1.244-.27-2.316-.811-3.207-.642-1.08-1.543-1.617-2.718-1.617-1.211 0-2.135.537-2.766 1.617-.547.89-.816 1.978-.816 3.26 0 1.252.269 2.32.816 3.21.65 1.079 1.563 1.618 2.74 1.618 1.155 0 2.059-.547 2.71-1.651.566-.902.845-1.986.845-3.23m3.133-.068c0 2.093-.596 3.802-1.787 5.15-1.254 1.377-2.914 2.066-4.981 2.066-2 0-3.594-.658-4.78-1.984-1.183-1.322-1.771-2.998-1.771-5.014 0-2.105.608-3.832 1.83-5.171 1.225-1.35 2.868-2.012 4.938-2.012 2.002 0 3.604.656 4.816 1.984 1.155 1.28 1.735 2.947 1.735 4.98M165.033 29.197a5.087 5.087 0 0 0-.949-.078c-1.067 0-1.885.402-2.465 1.201-.506.711-.754 1.594-.754 2.684v7.136h-3.023v-9.324c0-1.557-.028-2.986-.082-4.277h2.63l.114 2.601h.08c.316-.89.82-1.61 1.513-2.148a3.621 3.621 0 0 1 2.184-.727c.28 0 .531.016.752.051v2.881zM175.193 31.91c.016-.895-.176-1.664-.586-2.32-.527-.836-1.328-1.262-2.408-1.262-.986 0-1.789.42-2.406 1.238-.506.651-.805 1.436-.897 2.344h6.297zm2.883.79c0 .536-.039.993-.112 1.372h-9.068c.037 1.342.475 2.365 1.318 3.072.762.637 1.75.953 2.965.953 1.344 0 2.565-.212 3.664-.648l.48 2.104c-1.286.562-2.812.836-4.568.836-2.103 0-3.759-.616-4.964-1.858-1.2-1.24-1.809-2.904-1.809-4.992 0-2.055.565-3.76 1.68-5.127 1.183-1.455 2.767-2.18 4.761-2.18 1.963 0 3.444.725 4.45 2.18.8 1.16 1.203 2.59 1.203 4.287z"/></g></g></svg>