<?xml version="1.0" encoding="UTF-8"?><svg width="225" height="60" xmlns="http://www.w3.org/2000/svg"><!--Generator: Sketch 52.6 (67491) - http://www.bohemiancoding.com/sketch--><g fill="none" fill-rule="evenodd"><rect stroke="#191919" stroke-width="3" x="1.5" y="1.5" width="222" height="57" rx="5"/><g fill="#191919"><path d="M142.64 29.807c.554-.2.84-.375.84-.777 0-1.155-1.307-2.49-2.866-2.49-1.157 0-3.325.9-3.325 4.025 0 .488.057 1.007.086 1.527l5.266-2.285zm4.103 7.314l-1.383 1.305c-.32.176-.637.38-.954.525-.962.436-1.938.546-2.808.546-.924 0-2.371-.06-3.85-1.13-2.053-1.445-2.95-3.93-2.95-6.097 0-4.485 3.65-6.684 6.628-6.684 1.042 0 2.11.26 2.98.81 1.444.956 1.818 2.198 2.026 2.863l-6.8 2.747-2.227.174c.72 3.676 3.209 5.815 5.957 5.815 1.373 0 2.393-.448 3.328-.91 0 0 .187-.098.053.036z"/><path d="M132.526 36.896c0 1.125.2 1.3 1.15 1.387.496.06.99.085 1.479.143l-1.07.636h-5.098c.669-.866.784-.953.784-1.531v-.646l-.011-17.197h-2.251l2.167-1.044h4.136c-.896.52-1.164.836-1.28 1.848l-.006 16.404z"/><path d="M123.403 34.35c.668-.667.727-1.589.727-2.114 0-2.08-1.242-5.32-3.645-5.32-.75 0-1.563.377-2.025.958-.488.603-.635 1.386-.635 2.137 0 1.937 1.13 5.15 3.615 5.15.725 0 1.505-.353 1.963-.81zm-.833 5.496c-.236-.03-.378-.03-.665-.03-.262 0-1.825.056-3.035.462-.64.234-2.49.926-2.49 2.981 0 2.05 1.997 3.528 5.088 3.528 2.776 0 4.252-1.33 4.252-3.123 0-1.474-.954-2.254-3.15-3.818zm2.05-12.84c.664.545 2.051 1.704 2.051 3.902 0 2.142-1.209 3.152-2.427 4.107-.372.377-.81.785-.81 1.416 0 .64.438.987.752 1.246l1.045.806c1.27 1.073 2.428 2.057 2.428 4.053 0 2.721-2.633 5.464-7.609 5.464-4.191 0-6.217-1.995-6.217-4.136 0-1.042.517-2.517 2.23-3.528 1.791-1.096 4.221-1.242 5.523-1.327-.407-.526-.87-1.074-.87-1.97 0-.492.147-.783.29-1.129-.317.03-.636.062-.926.062-3.067 0-4.802-2.289-4.802-4.545 0-1.33.607-2.806 1.854-3.876 1.648-1.357 3.614-1.591 5.178-1.591h5.96l-1.853 1.046h-1.796zM110.304 37.097c.7-.926.87-2.082.87-3.208 0-2.547-1.214-7.406-4.801-7.406a4.03 4.03 0 0 0-2.608.983c-1.13 1.011-1.33 2.283-1.33 3.531 0 2.858 1.412 7.571 4.917 7.571 1.132 0 2.286-.547 2.952-1.471m-3.617 2.34c-4.597 0-7.057-3.58-7.057-6.822 0-3.787 3.092-7.029 7.491-7.029 4.252 0 6.915 3.33 6.915 6.825 0 3.414-2.632 7.026-7.349 7.026M94.912 37.097c.694-.926.867-2.082.867-3.208 0-2.547-1.217-7.406-4.8-7.406-.958 0-1.908.373-2.603.983-1.131 1.011-1.332 2.283-1.332 3.531 0 2.858 1.419 7.571 4.918 7.571 1.13 0 2.282-.547 2.95-1.471m-3.618 2.34c-4.599 0-7.054-3.58-7.054-6.822 0-3.787 3.093-7.029 7.49-7.029 4.25 0 6.91 3.33 6.91 6.825 0 3.414-2.628 7.026-7.346 7.026M82.401 38.433l-3.877.887c-1.572.248-2.982.467-4.476.467-7.48 0-10.33-5.507-10.33-9.815 0-5.262 4.038-10.14 10.953-10.14 1.463 0 2.871.215 4.153.564 2.033.571 2.983 1.274 3.577 1.687l-2.252 2.14-.95.212.677-1.08c-.918-.895-2.603-2.548-5.803-2.548-4.278 0-7.506 3.251-7.506 8 0 5.099 3.686 9.895 9.596 9.895 1.737 0 2.63-.35 3.441-.675v-4.37l-4.093.22 2.17-1.167h5.745l-.702.676c-.19.162-.215.216-.269.432a19.391 19.391 0 0 0-.054 1.31v3.305zM164.299 32.635c0-3.284-1.712-5.788-4.747-5.788-1.885 0-3.688 1.482-4.471 2.773v6c.783 1.295 2.586 2.83 4.47 2.83 3.036 0 4.748-2.526 4.748-5.815m-9.218 4.609v7.368h-1.463V25.865h1.463V28c.952-1.38 2.695-2.474 4.718-2.474 3.627 0 6.072 2.752 6.072 7.109 0 4.328-2.445 7.137-6.072 7.137-1.911 0-3.621-.984-4.718-2.528M167.869 39.435h1.462V20.69h-1.462zM185.749 43.4c.312.138.846.225 1.185.225.895 0 1.517-.366 2.078-1.66l1.067-2.417-5.764-13.683h1.632l4.945 11.858 4.896-11.858h1.655l-7.03 16.554c-.729 1.707-1.877 2.527-3.454 2.527-.473 0-1.096-.085-1.462-.197l.252-1.35zM176.283 38.329c1.243 0 2.136-.278 3.05-.827.905-.547 1.523-1.26 1.847-2.121v-2.606h-3.43c-1.309 0-2.393.29-3.246.875-.854.582-1.288 1.288-1.288 2.108 0 .773.274 1.393.82 1.862.547.474 1.294.709 2.247.709zm5.192 1.065c-.098-.47-.172-.884-.225-1.23-.046-.347-.07-.7-.07-1.06-.503.738-1.213 1.35-2.121 1.833-.908.485-1.77.725-2.955.725-1.426 0-2.532-.351-3.322-1.063-.787-.71-1.183-1.673-1.183-2.891 0-1.217.574-2.204 1.717-2.96 1.144-.758 2.622-1.134 4.45-1.134h3.414v-1.687c0-.971-.332-1.734-.992-2.289-.664-.553-1.595-.834-2.802-.834-1.103 0-1.998.257-2.68.756-.675.508-1.014 1.14-1.014 1.899h-1.499l-.03-.073c-.055-1.024.415-1.924 1.412-2.7.992-.776 2.293-1.166 3.893-1.166 1.594 0 2.885.384 3.859 1.15.972.758 1.46 1.855 1.46 3.288v6.695c0 .48.022.945.083 1.398.062.453.16.905.29 1.343h-1.685zM20.455 46.653c-.284-.33-.45-.82-.45-1.447L20 13.921c0-.662.186-1.175.503-1.503l17.701 17.094-17.75 17.14zm.951.47l17.518-16.916 5.052 4.878-21.291 11.709c-.463.254-.899.358-1.279.33zm22.502-23.12l-4.984 4.814L21.51 12H21.538c.349.003.737.11 1.147.335l21.223 11.669zm.918.504l6.508 3.58c1.477.812 1.477 2.138 0 2.953l-6.44 3.542-5.25-5.07 5.182-5.005z"/></g></g></svg>