<svg xmlns="http://www.w3.org/2000/svg" xmlns:xlink="http://www.w3.org/1999/xlink" width="24" height="24" viewBox="0 0 24 24">
    <defs>
        <path id="a" d="M310.817 36.998l8.592-8.573a2.007 2.007 0 0 0-2.837-2.837L308 34.18l-8.572-8.593a2.006 2.006 0 1 0-2.837 2.837l8.592 8.573-8.592 8.573a1.998 1.998 0 0 0 0 2.838 1.998 1.998 0 0 0 2.837 0L308 39.816l8.572 8.593a1.998 1.998 0 0 0 2.837 0 1.998 1.998 0 0 0 0-2.838l-8.592-8.573z"/>
    </defs>
    <use fill="#FFF" fill-rule="nonzero" transform="translate(-296 -25)" xlink:href="#a"/>
</svg>
